<svg xmlns="http://www.w3.org/2000/svg" width="18.252" height="19.469" viewBox="0 0 18.252 19.469">
  <g id="download" transform="translate(-16)">
    <g id="Group_13" data-name="Group 13" transform="translate(20.259)">
      <g id="Group_12" data-name="Group 12">
        <path id="Path_21" data-name="Path 21" d="M137.678,8.874a.607.607,0,0,0-.554-.357h-2.434V.608A.609.609,0,0,0,134.082,0h-2.434a.609.609,0,0,0-.608.608V8.518h-2.434a.608.608,0,0,0-.458,1.009l4.259,4.867a.607.607,0,0,0,.915,0l4.259-4.867A.607.607,0,0,0,137.678,8.874Z" transform="translate(-127.998)" fill="rgba(255,255,255,0.75)"/>
      </g>
    </g>
    <g id="Group_15" data-name="Group 15" transform="translate(16 13.385)">
      <g id="Group_14" data-name="Group 14">
        <path id="Path_22" data-name="Path 22" d="M31.819,352v3.65H18.434V352H16v4.867a1.216,1.216,0,0,0,1.217,1.217H33.035a1.216,1.216,0,0,0,1.217-1.217V352Z" transform="translate(-16 -352)" fill="rgba(255,255,255,0.75)"/>
      </g>
    </g>
  </g>
</svg>
