<svg xmlns="http://www.w3.org/2000/svg" xmlns:xlink="http://www.w3.org/1999/xlink" width="16.794" height="15.623" viewBox="0 0 16.794 15.623">
  <defs>
    <linearGradient id="linear-gradient" x1="0.5" x2="0.5" y2="1" gradientUnits="objectBoundingBox">
      <stop offset="0" stop-color="#ffbb3b"/>
      <stop offset="1" stop-color="#ffa90a"/>
    </linearGradient>
  </defs>
  <g id="Download_icon" data-name="Download icon" transform="translate(0.4 -16.85)">
    <g id="Group_18" data-name="Group 18" transform="translate(0 17.25)">
      <path id="Path_27" data-name="Path 27" d="M15.536,228.218a.456.456,0,0,0-.458.458v4.168a2.056,2.056,0,0,1-2.054,2.054H2.97a2.056,2.056,0,0,1-2.054-2.054v-4.236a.458.458,0,1,0-.916,0v4.236a2.973,2.973,0,0,0,2.97,2.97H13.024a2.973,2.973,0,0,0,2.97-2.97v-4.168A.458.458,0,0,0,15.536,228.218Z" transform="translate(0 -220.991)" stroke="#ffac12" stroke-width="0.8" fill="url(#linear-gradient)"/>
      <path id="Path_28" data-name="Path 28" d="M139.276,28.434a.461.461,0,0,0,.322.136.447.447,0,0,0,.322-.136l2.912-2.912a.458.458,0,0,0-.648-.648l-2.128,2.132v-9.3a.458.458,0,0,0-.916,0v9.3l-2.132-2.132a.458.458,0,1,0-.648.648Z" transform="translate(-131.601 -17.25)" stroke="#ffac12" stroke-width="0.8" fill="url(#linear-gradient)"/>
    </g>
  </g>
</svg>
