<svg xmlns="http://www.w3.org/2000/svg" xmlns:xlink="http://www.w3.org/1999/xlink" width="13.85" height="13.27" viewBox="0 0 13.85 13.27">
  <defs>
    <linearGradient id="linear-gradient" x1="0.5" x2="0.5" y2="1" gradientUnits="objectBoundingBox">
      <stop offset="0" stop-color="#ffbb3b"/>
      <stop offset="1" stop-color="#ffa90a"/>
    </linearGradient>
  </defs>
  <path id="star" d="M13.55,7.061A.993.993,0,0,0,13,5.366L9.645,4.879a.438.438,0,0,1-.33-.24L7.816,1.6a.993.993,0,0,0-1.781,0l-1.5,3.039a.438.438,0,0,1-.33.24L.851,5.367A.993.993,0,0,0,.3,7.061L2.727,9.426a.439.439,0,0,1,.126.388l-.573,3.34A.993.993,0,0,0,3.722,14.2l3-1.577a.439.439,0,0,1,.408,0l3,1.577a.993.993,0,0,0,1.441-1.047L11,9.814a.439.439,0,0,1,.126-.388Zm-3.1,2.847.573,3.34a.439.439,0,0,1-.636.463l-3-1.577a.993.993,0,0,0-.925,0l-3,1.577a.439.439,0,0,1-.636-.463L3.4,9.908a.993.993,0,0,0-.286-.879L.688,6.664a.439.439,0,0,1,.243-.748l3.353-.487a.992.992,0,0,0,.748-.543l1.5-3.039a.439.439,0,0,1,.787,0l1.5,3.039a.991.991,0,0,0,.748.543l3.354.487a.439.439,0,0,1,.243.748L10.736,9.029A.993.993,0,0,0,10.45,9.908Z" transform="translate(0 -1.047)" fill="url(#linear-gradient)"/>
</svg>
